inDegrees=no
num_controls=7
num_derivatives=13
num_iterations=223
num_multipliers=7
num_parameters=0
num_slacks=7
num_states=26
objective=6.443248
objective_accelerations=0.575201
objective_balance=0.080832
objective_effort=0.506395
objective_height=5.161007
objective_ligament=0.119812
solver_duration=1920.402010
status=Solve_Succeeded
success=true
DataType=double
version=3
OpenSimVersion=4.4-2022-07-23-0e9fedc
endheader
time	/jointset/ground_pelvis/pelvis_tilt/value	/jointset/ground_pelvis/pelvis_tx/value	/jointset/ground_pelvis/pelvis_ty/value	/jointset/hip_r/hip_flexion_r/value	/jointset/hip_r/hip_adduction_r/value	/jointset/hip_r/hip_rotation_r/value	/jointset/back/lumbar_extension/value	/jointset/patellofemoral_r/patellar_flexion_r/value	/jointset/knee_r/knee_flexion_r/value	/jointset/knee_r/knee_adduction_r/value	/jointset/knee_r/knee_rotation_r/value	/jointset/ankle_r/ankle_angle_r/value	/jointset/subtalar_r/subtalar_angle_r/value	/jointset/ground_pelvis/pelvis_tilt/speed	/jointset/ground_pelvis/pelvis_tx/speed	/jointset/ground_pelvis/pelvis_ty/speed	/jointset/hip_r/hip_flexion_r/speed	/jointset/hip_r/hip_adduction_r/speed	/jointset/hip_r/hip_rotation_r/speed	/jointset/back/lumbar_extension/speed	/jointset/patellofemoral_r/patellar_flexion_r/speed	/jointset/knee_r/knee_flexion_r/speed	/jointset/knee_r/knee_adduction_r/speed	/jointset/knee_r/knee_rotation_r/speed	/jointset/ankle_r/ankle_angle_r/speed	/jointset/subtalar_r/subtalar_angle_r/speed	/forceset/tau_hip_flexion_r	/forceset/tau_hip_adduction_r	/forceset/tau_hip_rotation_r	/forceset/tau_knee_flexion_r	/forceset/tau_ankle_angle_r	/forceset/tau_subtalar_angle_r	/forceset/tau_lumbar_extension	lambda_cid13_p0	lambda_cid14_p0	lambda_cid14_p1	lambda_cid14_p2	lambda_cid14_p3	lambda_cid14_p4	lambda_cid14_p5	/jointset/ground_pelvis/pelvis_tilt/accel	/jointset/ground_pelvis/pelvis_tx/accel	/jointset/ground_pelvis/pelvis_ty/accel	/jointset/hip_r/hip_flexion_r/accel	/jointset/hip_r/hip_adduction_r/accel	/jointset/hip_r/hip_rotation_r/accel	/jointset/back/lumbar_extension/accel	/jointset/patellofemoral_r/patellar_flexion_r/accel	/jointset/knee_r/knee_flexion_r/accel	/jointset/knee_r/knee_adduction_r/accel	/jointset/knee_r/knee_rotation_r/accel	/jointset/ankle_r/ankle_angle_r/accel	/jointset/subtalar_r/subtalar_angle_r/accel	gamma_cid13_p0	gamma_cid14_p0	gamma_cid14_p1	gamma_cid14_p2	gamma_cid14_p3	gamma_cid14_p4	gamma_cid14_p5
1.5	-0.1729995333463454	0.04472972188442887	0.8441633784074924	0.8182416297699988	-0.2403994692796439	-0.1071189321071257	-0.2866942156387667	0.7468220823380979	0.7468220823381096	0.06177503360854893	0.1745323060735451	0.2708776560218391	0.04440912039801301	0.4066153980002021	0.1625105893879933	0.4380821403220499	-1.879058824284715	0.04122473674019914	-0.4149463467597878	0.6997995827526531	-2.00702323881185	-2.00702323881185	0.1754602836125025	-3.570224868952938e-06	-0.6225259405845236	-0.1104403440442065	-0.1073182924655062	-0.01427359313615878	0.01252085651618091	-0.3208263427493173	0.04182009654782123	-0.007867667007881277	0.1489701096143415	-28.61128592951191	-27.47408322913606	-4.282166154232833	-3.363789823411686	5.075120923103172	-652.5992856396199	56.74527545697979	0.1902314453373088	0.3302669488244837	-0.5701253924713245	-0.8443927961354936	0.09899145206287455	-0.2789255906570295	1.351128097160156	-1.230240813746287	-1.230240813746291	0.6158047268305505	-0.02762981061941338	-0.6791726997836787	0.00226821722301516	1.561500441886237e-07	1.02869984133877e-07	-1.541328842978254e-06	8.516383602383738e-07	1.032957447204694e-07	2.16547457472507e-07	-1.126340544539398e-06
1.51	-0.168924167390631	0.04637110163971306	0.8485147847957362	0.7994108308304042	-0.2399830961149211	-0.1112827334372038	-0.2796300672262252	0.7266929485084908	0.7266929485085164	0.06356161249475571	0.1745323269251966	0.2646190233351431	0.04330386806614932	0.4083976600659544	0.1657368621230219	0.432104940114687	-1.886834796167852	0.0420436608507903	-0.4177928076682992	0.7129175310553131	-2.018510306338338	-2.018510306338344	0.1818509822049034	4.123684762549975e-06	-0.6291076689194789	-0.1105944164671206	-0.1004295115270288	-0.01606898736080516	0.01197220542289506	-0.317450333111023	0.04568442321165682	-0.008998175288358825	0.1427842094533213	-29.80009326893471	-26.06450371458298	-4.428808092605723	-3.4518142954925	4.647729271061642	-648.4053906661894	56.59321455324762	0.1632130048758694	0.3145535507946922	-0.6255953988797284	-0.7042612740559197	0.07240727256132196	-0.2841014720238341	1.275242891744173	-1.063990841430129	-1.063990841431046	0.6498217935772643	0.01457937486137668	-0.6336958417304722	-0.02204408205780463	1.66066546479351e-07	1.120859248140271e-07	-1.636025556545451e-06	9.066502432259477e-07	1.045750185244609e-07	2.436348352658171e-07	-1.197867765173987e-06
1.52	-0.164832780930722	0.04804389334533811	0.8528036035691039	0.7805102597940482	-0.2395587208326925	-0.1154743184025818	-0.2724381163916719	0.7064577337797537	0.7064577337797917	0.06541192224051469	0.1745323467925429	0.2582973687768218	0.04219751518805458	0.4098194988389709	0.1687929794561653	0.4255646173468916	-1.893013243637115	0.04282516024154678	-0.4205030738198356	0.7253600671549811	-2.028239418638029	-2.028239418638042	0.1882064555226008	-3.767081328760275e-06	-0.6351303149095948	-0.1106604532904013	-0.09354073058854882	-0.01786438158545432	0.01142355432958633	-0.3140743234727275	0.04954874987549149	-0.01012868356883982	0.1365983092923041	-30.97392841556754	-24.65826112042896	-4.571709434399871	-3.545375658660688	4.214647754439278	-644.2693299129014	56.5032477121164	0.1181467867901473	0.296235868447421	-0.6827499045578207	-0.5248879133608123	0.09150650809593552	-0.2516866392620277	1.216045656561747	-0.8786497683870202	-0.8786497683870216	0.6087596718898256	-0.03074674576396696	-0.5673562308157988	0.01987533714971741	1.751657127274715e-07	1.136014578415281e-07	-1.739026921384933e-06	9.350828098648817e-07	1.139118342571554e-07	2.510051965743211e-07	-1.263894414520787e-06
1.53	-0.1607290825456044	0.04974636655600242	0.8570242623807487	0.7615560260775147	-0.2391267583429163	-0.119692527408359	-0.265125068605443	0.6861341390882818	0.6861341390883156	0.06732555393814593	0.1745323981163959	0.2519183498061771	0.0410909193919407	0.4108590932251144	0.17166987151803	0.4184816084444609	-1.897565713517114	0.04356056482396946	-0.4231161694728398	0.737128605140613	-2.03618075955414	-2.036180759554175	0.1945129504869533	9.932299287064686e-06	-0.6405753065460834	-0.1106429103895158	-0.08662839161062773	-0.01976500146172185	0.01084373810375401	-0.3109582793742441	0.05363377188694639	-0.01140274252000196	0.1304189690800397	-32.12997788205466	-23.20614045594726	-4.776133778960147	-3.620890380068715	3.767062841627323	-640.4335619116579	56.34864515498884	0.08771225451331467	0.2786754795707032	-0.7338608323866193	-0.3802467239553478	0.06351533894340297	-0.2624857621809975	1.139125127012461	-0.7070997984467483	-0.7070997984500924	0.6403201024020809	0.01696797894218138	-0.5183038026696956	-0.005127084744837299	1.833964594303223e-07	1.069353077380895e-07	-1.850851978201216e-06	9.352748528833859e-07	1.318097882890966e-07	2.374262278677189e-07	-1.32407670687431e-06
1.54	-0.1566168189186272	0.05147666060818837	0.8611715342135089	0.7425643036224548	-0.2386876502261916	-0.1239361403174376	-0.2576979619878679	0.6657400862786033	0.6657400862786333	0.06930199572415932	0.1745324943738378	0.2454878342846467	0.03998493485457504	0.4115325472107293	0.1743571477604918	0.4108872215699977	-1.900510991342549	0.04425428563151142	-0.4255838544802986	0.7481718334241859	-2.042331042279195	-2.042331042279252	0.2007684731990704	5.219638614556941e-06	-0.645429625086744	-0.1105382015407416	-0.07971605263270229	-0.02166562133798749	0.01026392187792259	-0.3078422352757598	0.05771879389840181	-0.01267680147116135	0.1242396288677788	-33.25445658353716	-21.76098092061194	-4.976918059533912	-3.702535986439147	3.322175229019459	-636.7119923342751	56.26388158710245	0.04491870668440881	0.2583127045668305	-0.7850254989643516	-0.2034495024478154	0.08316975311980333	-0.2226045101529214	1.070983716150007	-0.5204381301757869	-0.5204381301757857	0.5985652214427317	-0.03442915402166846	-0.4492216116501587	0.03730852672748752	1.918038283103188e-07	1.023883163578746e-07	-1.956155370444863e-06	9.422944893319079e-07	1.46769096486385e-07	2.288652004798703e-07	-1.381867910102073e-06
